<svg xmlns="http://www.w3.org/2000/svg" viewBox="0 0 82 82"><path d="M2.707 79.097q2.14 2.11 5.279 2.097 3.138-.014 5.14-2.012l27.866-27.899 27.842 27.87q2.055 2.084 5.15 2.07t5.241-2.155q2.112-2.145 2.126-5.226.015-3.082-2.04-5.17L51.469 40.807 79.31 12.999q2.055-2.118 2.054-5.213 0-3.096-2.14-5.207Q77.051.463 73.969.434t-5.136 2.06L40.992 30.33 13.127 2.465Q11.125.463 7.972.448 4.819.434 2.707 2.551.562 4.689.591 7.815q.029 3.123 2.03 5.155l27.895 27.837L2.622 68.7Q.62 70.704.59 73.84q-.03 3.14 2.116 5.256z"/></svg>