<svg width="100" height="100" viewBox="0 0 100 100" fill="none" xmlns="http://www.w3.org/2000/svg">
<g clip-path="url(#clip0_1_3)">
<g clip-path="url(#clip1_1_3)">
<path d="M82.6904 1.5C89.7065 9.00758 94 19.0833 94 30.167C93.9998 53.3628 75.1959 72.167 52 72.167C28.8041 72.167 10.0002 53.3628 10 30.167C10 19.0833 14.2936 9.00759 21.3096 1.5H82.6904Z" stroke="black" stroke-width="4"/>
<circle cx="26.6667" cy="32.8333" r="8.66667" stroke="black" stroke-width="1.33333"/>
<circle cx="52" cy="32.8333" r="8.66667" stroke="black" stroke-width="1.33333"/>
<circle cx="77.3333" cy="32.8333" r="8.66667" stroke="black" stroke-width="1.33333"/>
<circle cx="39.3333" cy="54.1667" r="8.66667" stroke="black" stroke-width="1.33333"/>
<circle cx="64.6667" cy="54.1667" r="8.66667" stroke="black" stroke-width="1.33333"/>
<circle cx="40" cy="12.8333" r="5.33333" stroke="black" stroke-width="2.66667"/>
<circle cx="64" cy="12.8333" r="5.33333" stroke="black" stroke-width="2.66667"/>
</g>
<rect x="20" y="72.8333" width="64" height="25.3333" rx="12.6667" stroke="black" stroke-width="2.66667"/>
<circle cx="38" cy="85.5" r="7.33333" stroke="black" stroke-width="2.66667"/>
<circle cx="38" cy="85.5" r="1.66667" stroke="black" stroke-width="0.666667"/>
<circle cx="66" cy="85.5" r="7.33333" stroke="black" stroke-width="2.66667"/>
<circle cx="66" cy="85.5" r="1.66667" stroke="black" stroke-width="0.666667"/>
</g>
<defs>
<clipPath id="clip0_1_3">
<rect width="100" height="100" fill="white"/>
</clipPath>
<clipPath id="clip1_1_3">
<rect width="88" height="74.6667" fill="white" transform="translate(8 -0.5)"/>
</clipPath>
</defs>
</svg>
