<svg width="100" height="100" viewBox="0 0 100 100" fill="none" xmlns="http://www.w3.org/2000/svg">
<g clip-path="url(#clip0_1_4)">
<path d="M84.875 10.2725C92.848 18.8038 97.7275 30.2534 97.7275 42.8486C97.7275 69.2076 76.359 90.5762 50 90.5762C23.641 90.5762 2.27254 69.2076 2.27246 42.8486C2.27246 30.2534 7.1521 18.8039 15.125 10.2725H84.875Z" stroke="black" stroke-width="4.54545"/>
<circle cx="31.6949" cy="22.3559" r="6.1017" stroke="black" stroke-width="1.35593"/>
<circle cx="49.322" cy="22.3559" r="6.1017" stroke="black" stroke-width="1.35593"/>
<circle cx="66.9491" cy="22.3559" r="6.1017" stroke="black" stroke-width="1.35593"/>
<circle cx="49.322" cy="39.9831" r="6.1017" stroke="black" stroke-width="1.35593"/>
<circle cx="31.6949" cy="72.5254" r="6.1017" stroke="black" stroke-width="1.35593"/>
<circle cx="50.678" cy="72.5254" r="9.49153" stroke="black" stroke-width="2.71186"/>
<circle cx="69.661" cy="72.5254" r="6.1017" stroke="black" stroke-width="1.35593"/>
<circle cx="25.5932" cy="47.4407" r="14.2373" stroke="black" stroke-width="2.71186"/>
<circle cx="74.4068" cy="47.4407" r="14.2373" stroke="black" stroke-width="2.71186"/>
</g>
<defs>
<clipPath id="clip0_1_4">
<rect width="100" height="84.8485" fill="white" transform="translate(0 8)"/>
</clipPath>
</defs>
</svg>
