<svg xmlns="http://www.w3.org/2000/svg" xml:space="preserve" style="fill-rule:evenodd;clip-rule:evenodd;stroke-linejoin:round;stroke-miterlimit:2" viewBox="-2 0 405 405"><path d="M38.477-12.207c6.298 0 12.109-2.002 16.943-5.322L72.754-.195c.928.927 2.148 1.367 3.418 1.367 2.734 0 4.736-2.1 4.736-4.785 0-1.27-.439-2.539-1.367-3.418L62.353-24.268c3.663-4.98 5.811-11.084 5.811-17.675 0-16.358-13.33-29.688-29.687-29.688-16.309 0-29.688 13.281-29.688 29.688 0 16.357 13.33 29.736 29.688 29.736m0-7.275c-12.256 0-22.413-10.157-22.413-22.461 0-12.256 10.157-22.413 22.413-22.413 12.304 0 22.412 10.157 22.412 22.413 0 12.304-10.108 22.461-22.412 22.461" style="fill-rule:nonzero" transform="translate(-48.818 397.95)scale(5.55556)"/></svg>